<!--?xml version="1.0" standalone="no"?-->
              <svg id="sw-js-blob-svg" viewBox="0 0 100 100" xmlns="http://www.w3.org/2000/svg" version="1.1">
                    <defs> 
                        <linearGradient id="sw-gradient" x1="0" x2="1" y1="1" y2="0">
                            <stop id="stop1" stop-color="rgba(234, 210, 172, 1)" offset="0%"></stop>
                            <stop id="stop2" stop-color="rgba(223, 146, 142, 1)" offset="100%"></stop>
                        </linearGradient>
                    </defs>
                <path fill="url(#sw-gradient)" d="M23.3,-37.9C30.1,-36.5,35.4,-30,38.3,-22.8C41.3,-15.6,42,-7.8,42.1,0.1C42.2,8,41.8,15.9,38.8,23.1C35.8,30.2,30.3,36.5,23.4,40.6C16.5,44.6,8.2,46.4,0.1,46.1C-8,45.9,-15.9,43.7,-21.7,39C-27.5,34.3,-31.1,27.2,-35.4,20.3C-39.7,13.4,-44.6,6.7,-45.5,-0.5C-46.4,-7.7,-43.2,-15.4,-37.5,-19.8C-31.8,-24.2,-23.5,-25.4,-16.9,-26.8C-10.2,-28.3,-5.1,-30.1,1.6,-32.9C8.3,-35.6,16.6,-39.3,23.3,-37.9Z" width="100%" height="100%" transform="translate(50 50)" stroke-width="0" style="transition: all 0.3s ease 0s;" stroke="url(#sw-gradient)"></path>
              </svg>